<svg version="1.0" xmlns="http://www.w3.org/2000/svg" width="346.667" height="346.667" viewBox="0 0 260 260"><path d="M45 54.5c0 .8.4 2.4 1 3.7.5 1.3 5.9 20.1 12 41.8 6.1 21.7 11.6 40.8 12.1 42.5 1.3 4.1 5.9 20.3 6.9 24 1.8 7.1 8.2 29.2 9.2 31.8l1.1 2.8 13.6-.3 13.6-.3 3.2-10.5c4.2-13.7 9.7-31.8 17.3-56.5 3.4-11 7-22.7 8-26 1-3.3 2.6-8.5 3.5-11.5 1-3 1.8-6 1.9-6.7.2-1.4 1.6-3 1.6-1.9 0 .4 3.6 14.1 8.1 30.4 4.5 16.3 8.3 30.6 8.5 31.7.3 1.1 3.5 13 7.2 26.5l6.8 24.5h27.5l1.9-5.5c1.7-5.4 14.3-44.2 35.1-108 5.6-17.3 10.4-32.1 10.7-32.8.3-1-2.1-1.2-11.3-1-11.6.3-11.8.3-12.6 2.8-1 3.3-12.7 39.6-23 71-4.5 14-8.4 25.9-8.5 26.5-.2 1.1-3.1 10-4 12.5-.5 1.3-5.7-15.9-8.3-27.5-.5-2.2-2.7-10.5-4.9-18.5-2.1-8-7-26.3-10.8-40.7L165.5 53h-27.2l-3.6 11.7c-1.9 6.5-6.5 21.7-10.2 33.8-3.7 12.1-7.3 23.8-8 26-.7 2.2-3.9 12.7-7.1 23.2-3.2 10.6-5.9 19.1-6.1 18.9-.4-.4-1.3-3.7-17.3-60.1-6.6-23.7-12.8-45.4-13.6-48.3L70.9 53H58c-10.7 0-13 .3-13 1.5zm-28 31V94h17V77H17v8.5zm0 71V203h17v-93H17v46.5z"/></svg>